<?xml version="1.0" encoding="UTF-8"?>
<svg width="16px" height="16px" viewBox="0 0 16 16" version="1.1" xmlns="http://www.w3.org/2000/svg" xmlns:xlink="http://www.w3.org/1999/xlink">
    <!-- Generator: Sketch 43.2 (39069) - http://www.bohemiancoding.com/sketch -->
    <title>Fill 12 Copy</title>
    <desc>Created with Sketch.</desc>
    <defs></defs>
    <g id="Marketing-Pages" stroke="none" stroke-width="1" fill="none" fill-rule="evenodd">
        <g id="Landing-Page-Tiempos" transform="translate(-907.000000, -36.000000)" fill="#FFFFFF">
            <g id="Group-11" transform="translate(895.000000, 26.000000)">
                <path d="M28.000031,25.1169553 L28.000031,10.8830447 C28.000031,10.3952994 27.6047238,10 27.1169863,10 L12.8830757,10 C12.3953924,10 11.999969,10.3952994 11.999969,10.8830447 L11.999969,18.5461333 L18.1960472,18.5461333 L18.1960472,16.4609908 L20.6107919,16.4609908 L20.6107919,18.5461333 L22.3915693,18.5461333 C24.4581327,18.5461333 25.5834339,19.8083011 25.5834339,21.6518458 C25.5834339,22.5349525 25.5177289,23.2939042 25.4883527,23.5150548 L23.3286304,23.5150548 L23.3280336,22.2364704 C23.3280336,21.2338826 22.8516203,21.0397053 22.1524984,21.0397053 L20.6107919,21.0397053 L20.6107919,23.430887 L18.1960472,23.1195771 L18.1960472,21.0397053 L11.999969,21.0397053 L11.999969,25.1169553 C11.999969,25.604637 12.3953924,26 12.8830757,26 L27.1169863,26 C27.6047238,26 28.000031,25.604637 28.000031,25.1169553" id="Fill-12-Copy" transform="translate(20.000000, 18.000000) rotate(-90.000000) translate(-20.000000, -18.000000) "></path>
            </g>
        </g>
    </g>
</svg>