<?xml version="1.0" encoding="UTF-8"?>
<svg width="22px" height="23px" viewBox="0 0 22 23" version="1.1" xmlns="http://www.w3.org/2000/svg" xmlns:xlink="http://www.w3.org/1999/xlink">
    <!-- Generator: Sketch 43.2 (39069) - http://www.bohemiancoding.com/sketch -->
    <title>ic_color</title>
    <desc>Created with Sketch.</desc>
    <defs></defs>
    <g id="Breakpoints" stroke="none" stroke-width="1" fill="none" fill-rule="evenodd">
        <g id="375px" transform="translate(-278.000000, -29.000000)">
            <g id="ic_color" transform="translate(271.000000, 24.000000)">
                <rect id="Rectangle-4" x="0" y="0" width="36" height="36"></rect>
                <path d="M23.8580097,14.5247439 L14.3332657,5 L12.831041,6.50222471 L15.3667111,9.0378948 L9.87986198,14.5247439 C9.2512715,15.1533344 9.2512715,16.1654716 9.87986198,16.783408 L15.7396038,22.6431498 C16.048572,22.952118 16.4640809,23.1119292 16.8689358,23.1119292 C17.2737907,23.1119292 17.6892997,22.952118 17.9982679,22.6431498 L23.8580097,16.783408 C24.4866002,16.1654716 24.4866002,15.1533344 23.8580097,14.5247439 L23.8580097,14.5247439 Z M11.7656334,15.654076 L16.8689358,10.5507736 L21.9722382,15.654076 L11.7656334,15.654076 Z M26.4576042,17.2521874 C26.4576042,17.2521874 28.5884194,19.5641219 28.5884194,20.981114 C28.5884194,22.1530623 27.6295526,23.1119292 26.4576042,23.1119292 C25.2856559,23.1119292 24.326789,22.1530623 24.326789,20.981114 C24.326789,19.5641219 26.4576042,17.2521874 26.4576042,17.2521874 Z M7,25 L29,25 L29,26.5 C29,27.3284271 28.3295713,28 27.5051468,28 L8.49485322,28 C7.66926859,28 7,27.3342028 7,26.5 L7,25 Z" id="Shape" fill="#191919" fill-rule="nonzero"></path>
            </g>
        </g>
    </g>
</svg>