<?xml version="1.0" encoding="UTF-8"?>
<svg width="22px" height="23px" viewBox="0 0 22 23" version="1.1" xmlns="http://www.w3.org/2000/svg" xmlns:xlink="http://www.w3.org/1999/xlink">
    <!-- Generator: Sketch 43.2 (39069) - http://www.bohemiancoding.com/sketch -->
    <title>Group 2</title>
    <desc>Created with Sketch.</desc>
    <defs></defs>
    <g id="Reading-Experience" stroke="none" stroke-width="1" fill="none" fill-rule="evenodd">
        <g id="Article-Light-Tiempos" transform="translate(-122.000000, -236.000000)">
            <g id="Group-5" transform="translate(115.000000, 143.000000)">
                <g id="Group-2" transform="translate(0.000000, 88.000000)">
                    <rect id="Rectangle-4" x="0" y="0" width="36" height="36"></rect>
                    <g id="ic_format_color_fill_black_36px" transform="translate(7.000000, 5.000000)" fill="#191919">
                        <polygon id="Path" points="0 20 0 23 22 23 22 20"></polygon>
                        <path d="M16.8580097,9.52474394 L7.33326575,0 L5.83104103,1.50222471 L8.36671112,4.0378948 L2.87986198,9.52474394 C2.2512715,10.1533344 2.2512715,11.1654716 2.87986198,11.783408 L8.73960378,17.6431498 C9.04857198,17.952118 9.46408094,18.1119292 9.86893583,18.1119292 C10.2737907,18.1119292 10.6892997,17.952118 10.9982679,17.6431498 L16.8580097,11.783408 C17.4866002,11.1654716 17.4866002,10.1533344 16.8580097,9.52474394 L16.8580097,9.52474394 Z M4.76563343,10.654076 L9.86893583,5.55077359 L14.9722382,10.654076 L4.76563343,10.654076 Z M19.4576042,12.2521874 C19.4576042,12.2521874 17.326789,14.5641219 17.326789,15.981114 C17.326789,17.1530623 18.2856559,18.1119292 19.4576042,18.1119292 C20.6295526,18.1119292 21.5884194,17.1530623 21.5884194,15.981114 C21.5884194,14.5641219 19.4576042,12.2521874 19.4576042,12.2521874 Z" id="Shape" fill-rule="nonzero"></path>
                    </g>
                </g>
            </g>
        </g>
    </g>
</svg>