<svg xmlns="http://www.w3.org/2000/svg" width="36" height="36" viewBox="0 0 36 36">
  <path fill="#191919" d="M9.99079514,20 L9.99735097,20 C9.9959655,20.0001857 9.99388744,20 9.99079514,20 Z M26.0092049,20 C25.9972918,20 26,10.0058587 26,10.0058587 C26,10.001514 9.99079514,10 9.99079514,10 C10.0027082,10 10,19.9941413 10,19.9941413 C10,19.998486 26.0092049,20 26.0092049,20 Z M8,10.0058587 C8,8.89805351 8.89821238,8 9.99079514,8 L26.0092049,8 C27.1086907,8 28,8.89706013 28,10.0058587 L28,19.9941413 C28,21.1019465 27.1017876,22 26.0092049,22 L9.99079514,22 C8.89130934,22 8,21.1029399 8,19.9941413 L8,10.0058587 Z M7,25 L29,25 L29,26.5 C29,27.3284271 28.3295713,28 27.5051468,28 L8.49485322,28 C7.66926859,28 7,27.3342028 7,26.5 L7,25 Z M12,14 L24,14 L24,16 L12,16 L12,14 Z"/>
</svg>
