<svg xmlns="http://www.w3.org/2000/svg" width="22" height="22" viewBox="0 0 22 22">
  <g fill="none" fill-rule="evenodd" transform="translate(-7 -6)">
    <path fill="#EEE" fill-rule="nonzero" d="M14.25,19.2 L21.75,19.2 L23.1,22.5 L26.25,22.5 L19.125,6 L16.875,6 L9.75,22.5 L12.9,22.5 L14.25,19.2 Z M18,8.97 L20.805,16.5 L15.195,16.5 L18,8.97 Z M7,25 L29,25 L29,26.5 C29,27.3284271 28.3295713,28 27.5051468,28 L8.49485322,28 C7.66926859,28 7,27.3342028 7,26.5 L7,25 Z"/>
    <polygon points="0 0 36 0 36 36 0 36"/>
  </g>
</svg>
