<?xml version="1.0" encoding="UTF-8"?>
<svg width="22px" height="22px" viewBox="0 0 22 22" version="1.1" xmlns="http://www.w3.org/2000/svg" xmlns:xlink="http://www.w3.org/1999/xlink">
    <!-- Generator: Sketch 43.2 (39069) - http://www.bohemiancoding.com/sketch -->
    <title>ic_type-size</title>
    <desc>Created with Sketch.</desc>
    <defs></defs>
    <g id="Breakpoints" stroke="none" stroke-width="1" fill="none" fill-rule="evenodd">
        <g id="375px" transform="translate(-234.000000, -30.000000)">
            <g id="ic_type-size" transform="translate(227.000000, 24.000000)">
                <path d="M14.25,19.2 L21.75,19.2 L23.1,22.5 L26.25,22.5 L19.125,6 L16.875,6 L9.75,22.5 L12.9,22.5 L14.25,19.2 Z M18,8.97 L20.805,16.5 L15.195,16.5 L18,8.97 Z M7,25 L29,25 L29,26.5 C29,27.3284271 28.3295713,28 27.5051468,28 L8.49485322,28 C7.66926859,28 7,27.3342028 7,26.5 L7,25 Z" id="Shape" fill="#191919" fill-rule="nonzero"></path>
                <polygon id="Shape" points="0 0 36 0 36 36 0 36"></polygon>
            </g>
        </g>
    </g>
</svg>