<?xml version="1.0" encoding="UTF-8"?>
<svg width="24px" height="16px" viewBox="0 0 24 16" version="1.1" xmlns="http://www.w3.org/2000/svg" xmlns:xlink="http://www.w3.org/1999/xlink">
    <!-- Generator: Sketch 43.2 (39069) - http://www.bohemiancoding.com/sketch -->
    <title>Group 4</title>
    <desc>Created with Sketch.</desc>
    <defs></defs>
    <g id="Reading-Experience" stroke="none" stroke-width="1" fill="none" fill-rule="evenodd">
        <g id="Article-Light-Tiempos" transform="translate(-121.000000, -285.000000)">
            <g id="Group-5" transform="translate(115.000000, 143.000000)">
                <g id="Group-4" transform="translate(0.000000, 132.000000)">
                    <g id="ic_laptop_black_36px"></g>
                    <g id="Group-3" transform="translate(6.000000, 6.000000)">
                        <rect id="Rectangle-2" x="0" y="0" width="24" height="24"></rect>
                        <path d="M20,18 C21.1,18 22,17.1 22,16 L22,6 C22,4.9 21.1,4 20,4 L4,4 C2.9,4 2,4.9 2,6 L2,16 C2,17.1 2.9,18 4,18 L0,18 L0,20 L24,20 L24,18 L20,18 Z M4,6 L20,6 L20,16 L4,16 L4,6 Z" id="Shape" fill="#191919" fill-rule="nonzero"></path>
                        <rect id="Rectangle-5" fill="#191919" x="6" y="10" width="12" height="2"></rect>
                    </g>
                </g>
            </g>
        </g>
    </g>
</svg>